# AST/ASF file generated using VICON BodyLanguage
# -----------------------------------------------
:version 1.10
:name VICON
:units
  mass 1.0
  length 0.45
  angle deg
:documentation
   .ast/.asf automatically generated from VICON data using
   VICON BodyBuilder and BodyLanguage model FoxedUp or BRILLIANT.MOD
:root
   order TX TY TZ RX RY RZ
   axis XYZ
   position 0 0 0  
   orientation 0 0 0 
:bonedata
  begin
     id 1 
     name lhipjoint
     direction 0.611804 -0.747784 0.257906 
     length 2.29243 
     axis 0 0 0  XYZ
  end
  begin
     id 2 
     name lfemur
     direction 0.34202 -0.939693 0  
     length 7.31159  
     axis 0 0 20  XYZ
    dof rx ry rz
    limits (-160.0 20.0)
           (-70.0 70.0)
           (-60.0 70.0)
  end
  begin
     id 3 
     name ltibia
     direction 0.34202 -0.939693 0   
     length 7.33391   
     axis 0 0 20   XYZ
    dof rx
    limits (-10.0 170.0)
  end
  begin
     id 4 
     name lfoot
     direction 0.122263 -0.335914 0.933924   
     length 1.76083   
     axis -90 7.62852e-016 20   XYZ
    dof rx rz
    limits (-45.0 90.0)
           (-70.0 20.0)
  end
  begin
     id 5 
     name ltoes
     direction 1.53533e-011 -4.2177e-011 1   
     length 0.879206   
     axis -90 7.62852e-016 20   XYZ
    dof rx
    limits (-90.0 20.0)
  end
  begin
     id 6 
     name rhipjoint
     direction -0.646469 -0.721248 0.248754   
     length 2.37677  
     axis 0 0 0  XYZ 
  end
  begin
     id 7 
     name rfemur
     direction -0.34202 -0.939693 0   
     length 7.18623   
     axis 0 0 -20   XYZ
    dof rx ry rz
    limits (-160.0 20.0)
           (-70.0 70.0)
           (-70.0 60.0)
  end
  begin
     id 8 
     name rtibia
     direction -0.34202 -0.939693 0   
     length 7.36567   
     axis 0 0 -20   XYZ
    dof rx
    limits (-10.0 170.0)
 end
 begin
     id 9 
     name rfoot
     direction -0.126681 -0.348054 0.928876   
     length 1.71902  
     axis -90 -7.62852e-016 -20   XYZ
    dof rx rz
    limits (-45.0 90.0)
           (-20.0 70.0)
  end
  begin
     id 10 
     name rtoes
     direction -1.53551e-011 -4.21898e-011 1   
     length 0.857792   
     axis -90 -7.62852e-016 -20   XYZ
    dof rx
    limits (-90.0 20.0)
  end
  begin
     id 11 
     name lowerback
     direction 0.0106509 0.999778 0.0181844   
     length 2.07668   
     axis 0 0 0   XYZ
    dof rx ry rz
    limits (-20.0 45.0)
           (-30.0 30.0)
           (-30.0 30.0)
  end
  begin
     id 12 
     name upperback
     direction -0.00456018 0.999989 -0.000590935   
     length 2.08011   
     axis 0 0 0   XYZ
    dof rx ry rz
    limits (-20.0 45.0)
           (-30.0 30.0)
           (-30.0 30.0)
  end
  begin
     id 13 
     name thorax
     direction -0.00910382 0.999916 -0.00923765   
     length 2.07397   
     axis 0 0 0   XYZ
    dof rx ry rz
    limits (-20.0 45.0)
           (-30.0 30.0)
           (-30.0 30.0)
  end
  begin
     id 14 
     name lowerneck
     direction 0.00171967 0.99778 0.0665733   
     length 1.67556   
     axis 0 0 0   XYZ
    dof rx ry rz
    limits (-20.0 45.0)
           (-30.0 30.0)
           (-30.0 30.0)
  end
  begin
     id 15 
     name upperneck
     direction -0.0143166 0.991302 -0.130828   
     length 1.68462   
     axis 0 0 0   XYZ
    dof rx ry rz
    limits (-20.0 45.0)
           (-30.0 30.0)
           (-30.0 30.0)
  end
  begin
     id 16
     name head
     direction -0.00606378 0.998665 -0.0512995  
     length 1.69269  
     axis 0 0 0   XYZ
    dof rx ry rz
    limits (-20.0 45.0)
           (-30.0 30.0)
           (-30.0 30.0)
  end
  begin
     id 17 
     name lclavicle
     direction 0.9638 0.179341 0.197297  
     length 4.12888  
     axis 0 0 0   XYZ
    dof ry rz
    limits (-20.0 10.0)
           (0.0 20.0)
  end
  begin
     id 18 
     name lhumerus
     direction 1 -4.48972e-011 -2.47351e-027   
     length 5.01834   
     axis -180 -30 -90   XYZ
    dof rx ry rz
    limits (-60.0 90.0)
           (-90.0 90.0)
           (-90.0 90.0)
  end
  begin
     id 19
     name lradius
     direction 1 -4.48965e-011 1.51591e-026   
     length 3.4869   
     axis -180 -30 -90   XYZ
    dof rx
    limits (-10.0 170.0)
  end
  begin
     id 20
     name lwrist
     direction 1 -4.48957e-011 2.70032e-026   
     length 1.74345   
     axis -1.81515e-014 90 90   XYZ
    dof ry
    limits (-180.0 0.0)
 end
  begin
     id 21 
     name lhand
     direction 1 -4.48951e-011 5.40064e-026   
     length 0.76799   
     axis -3.44607e-014 90 90   XYZ
    dof rx rz
    limits (-90.0 90.0)
           (-45.0 45.0)
  end
  begin
     id 22 
     name lfingers
     direction 1 -4.48971e-011 1.08013e-025   
     length 0.619174   
     axis -6.89214e-014 90 90   XYZ
    dof rx
    limits (0.0 90.0)
  end
  begin
     id 23
     name lthumb
     direction 0.707107 -6.34931e-011 0.707107   
     length 0.889013   
     axis -90 45 2.85299e-015   XYZ
    dof rx rz
    limits (-45.0 45.0)
           (-45.0 45.0)
  end
  begin
     id 24 
     name rclavicle
     direction -0.961409 0.252588 0.109054   
     length 4.04305  
     axis 0 0 0   XYZ 
    dof ry rz
    limits (-10.0 20.0)
           (-20.0 0.0)
  end
  begin
     id 25 
     name rhumerus
     direction -1 -4.4897e-011 1.33872e-017  
     length 4.70164   
     axis -180 30 90   XYZ
    dof rx ry rz
    limits (-90.0 60.0)
           (-90.0 90.0)
           (-90.0 90.0)
  end
  begin
     id 26 
     name rradius
     direction -1 -4.48954e-011 1.83844e-026   
     length 3.49911   
     axis -180 30 90   XYZ
    dof rx
    limits (-10.0 170.0)
  end
  begin
     id 27 
     name rwrist
     direction -1 -4.49008e-011 2.70032e-026   
     length 1.74955   
     axis -1.81515e-014 -90 -90   XYZ
    dof ry
    limits (-180.0 0.0)
  end
  begin
     id 28
     name rhand
     direction -1 -4.48916e-011 5.40064e-026   
     length 0.739335   
     axis -3.44607e-014 -90 -90   XYZ
    dof rx rz
    limits (-90.0 90.0)
           (-45.0 45.0)
  end
  begin
     id 29
     name rfingers
     direction -1 -4.48987e-011 1.08013e-025   
     length 0.596071   
     axis -6.89214e-014 -90 -90   XYZ
    dof rx
    limits (0.0 90.0)
  end
  begin
     id 30
     name rthumb
     direction -0.707107 -6.34935e-011 0.707107   
     length 0.855843   
     axis -90 -45 -2.85299e-015   XYZ
    dof rx rz
    limits (-45.0 45.0)
           (-45.0 45.0)
  end
:hierarchy
  begin
    root lhipjoint rhipjoint lowerback
    lhipjoint lfemur
    lfemur ltibia
    ltibia lfoot
    lfoot ltoes
    rhipjoint rfemur
    rfemur rtibia
    rtibia rfoot
    rfoot rtoes
    lowerback upperback
    upperback thorax
    thorax lowerneck lclavicle rclavicle
    lowerneck upperneck
    upperneck head
    lclavicle lhumerus
    lhumerus lradius
    lradius lwrist
    lwrist lhand lthumb
    lhand lfingers
    rclavicle rhumerus
    rhumerus rradius
    rradius rwrist
    rwrist rhand rthumb
    rhand rfingers
  end

#!OML:ASF I:\salsa\salsa 7_09\Patient 1\Session 1\dancermale.ASF
:FULLY-SPECIFIED
:DEGREES
1
root -13.1577 17.5286 -2.50548 -7.74699 85.1294 -15.1875
lowerback -4.95938 3.04186 -2.96678
upperback 0.152857 4.24943 -0.547973
thorax 2.75983 2.08077 1.39664
lowerneck -2.86421 -12.6818 -11.151
upperneck 15.9845 -16.2283 1.26246
head 6.3781 -8.36481 0.979073
rclavicle -1.15792e-014 -1.31198e-014
rhumerus -34.5406 -9.74261 -90.6944
rradius 33.5338
rwrist 27.1919
rhand -26.1163 9.6705
rfingers 7.12502
rthumb 0.433464 -20.3088
lclavicle -1.15792e-014 -1.31198e-014
lhumerus -30.9764 18.1395 81.9709
lradius 28.4152
lwrist 4.47972
lhand -14.963 44.53
lfingers 7.12502
lthumb 11.2005 74.2111
rfemur -13.3261 -1.5515 16.1124
rtibia 23.3933
rfoot -18.778 -12.5224
rtoes -11.2725
lfemur -9.17201 4.56421 -19.6857
ltibia 9.53072
lfoot -12.7519 8.96576
ltoes 3.78177
2
root -13.1637 17.5172 -2.53869 -6.76706 85.1616 -14.1367
lowerback -4.67899 2.97194 -2.51266
upperback 0.0963045 4.12778 -0.800223
thorax 2.60001 2.03172 0.86021
lowerneck -1.67331 -12.6026 -10.264
upperneck 13.3001 -16.3747 1.45712
head 5.27181 -8.3841 1.08796
rclavicle 2.4202e-014 -1.03368e-014
rhumerus -34.6212 -10.7356 -90.5069
rradius 33.2346
rwrist 27.2259
rhand -26.0495 8.77893
rfingers 7.12502
rthumb 0.497927 -21.2002
lclavicle 2.4202e-014 -1.03368e-014
lhumerus -30.6793 16.6219 82.168
lradius 28.5821
lwrist 4.93902
lhand -15.3415 44.4416
lfingers 7.12502
lthumb 10.8354 74.1421
rfemur -13.9643 -2.55015 15.8828
rtibia 24.6122
rfoot -18.8077 -12.0128
rtoes -10.0233
lfemur -9.00325 5.19037 -19.9113
ltibia 9.2925
lfoot -12.6481 8.31195
ltoes 2.97427
3
root -13.1721 17.5074 -2.57175 -6.38734 85.2642 -13.6898
lowerback -4.35651 2.90506 -1.99314
upperback 0.0551308 4.00855 -1.05932
thorax 2.43456 1.98361 0.279929
lowerneck -0.54312 -12.5531 -9.42075
upperneck 10.6261 -16.525 1.76185
head 4.21533 -8.40873 1.2331
rclavicle 1.33186e-014 -5.56597e-015
rhumerus -34.6984 -11.8904 -90.2262
rradius 32.8858
rwrist 27.5746
rhand -25.9678 8.17854
rfingers 7.12502
rthumb 0.576828 -21.8004
lclavicle 1.33186e-014 -5.56597e-015
lhumerus -30.2682 15.3666 82.2762
lradius 28.7252
lwrist 5.45434
lhand -15.3407 44.3998
lfingers 7.12502
lthumb 10.8361 74.1002
rfemur -14.6396 -3.30512 15.746
rtibia 25.9198
rfoot -18.9248 -11.9083
rtoes -9.25687
lfemur -8.85373 5.46495 -20.0941
ltibia 9.04184
lfoot -12.5185 7.90301
ltoes 2.69429
4
root -13.184 17.5012 -2.60118 -6.84299 85.4166 -14.0911
lowerback -4.10634 2.80619 -1.29793
upperback 0.0833834 3.84661 -1.38443
thorax 2.39426 1.91454 -0.460698
lowerneck 1.71497 -12.4637 -8.0963
upperneck 5.41983 -16.6722 1.87659
head 2.33446 -8.42277 1.5575
rclavicle 5.5113e-014 -1.86858e-014
rhumerus -34.6062 -13.1881 -90.0604
rradius 32.4578
rwrist 28.2154
rhand -25.8215 7.50751
rfingers 7.12502
rthumb 0.718115 -22.471
lclavicle 5.5113e-014 -1.86858e-014
lhumerus -29.7033 14.2964 82.2119
lradius 28.8792
lwrist 5.88238
lhand -15.0481 44.3041
lfingers 7.12502
lthumb 11.1183 73.9896
rfemur -15.3234 -3.82449 15.7228
rtibia 27.2053
rfoot -18.9042 -12.1846
rtoes -8.97096
lfemur -8.81707 5.55833 -20.1869
ltibia 8.95524
lfoot -12.4752 7.58579
ltoes 3.00645
5
root -13.199 17.5008 -2.62577 -6.94459 85.5681 -14.1692
lowerback -3.94494 2.67256 -0.730298
upperback 0.141766 3.64785 -1.64849
thorax 2.41647 1.8249 -1.06491
lowerneck 1.52417 -12.5131 -7.80697
upperneck 5.17992 -16.752 2.24437
head 2.30126 -8.45089 1.61959
rclavicle -2.08724e-015 -3.18055e-015
rhumerus -34.3942 -14.3266 -89.8755
rradius 31.9013
rwrist 28.8566
rhand -25.74 6.58133
rfingers 7.12502
rthumb 0.796874 -23.3969
lclavicle -2.08724e-015 -3.18055e-015
lhumerus -29.0963 13.2933 82.1905
lradius 28.9519
lwrist 6.1904
lhand -14.964 44.2742
lfingers 7.12502
lthumb 11.1995 73.9553
rfemur -16.0435 -4.1661 15.6954
rtibia 28.442
rfoot -18.749 -12.5989
rtoes -9.36756
lfemur -8.93612 5.79776 -20.308
ltibia 9.1148
lfoot -12.5274 7.25864
ltoes 2.39511
6
root -13.2273 17.5131 -2.64503 -10.076 85.722 -17.534
lowerback -3.98243 2.4755 -0.489068
upperback 0.151098 3.36651 -1.4293
thorax 2.44326 1.68499 -0.98966
lowerneck 1.29888 -12.5252 -7.96678
upperneck 4.93451 -16.7662 2.48177
head 2.29955 -8.45423 1.70877
rclavicle -4.42296e-015 -1.98785e-015
rhumerus -34.2288 -14.9247 -89.2293
rradius 31.4926
rwrist 29.2626
rhand -25.5039 5.76217
rfingers 7.12502
rthumb 1.02493 -24.2151
lclavicle -4.42296e-015 -1.98785e-015
lhumerus -28.509 12.7872 82.6699
lradius 28.9448
lwrist 6.30997
lhand -15.2438 44.4534
lfingers 7.12502
lthumb 10.9296 74.1489
rfemur -17.1291 -4.23073 16.0161
rtibia 29.7256
rfoot -18.7118 -13.1465
rtoes -8.95605
lfemur -9.54291 6.03751 -20.1479
ltibia 9.55629
lfoot -12.5589 7.06169
ltoes 0.504244
